<?xml version="1.0" encoding="utf-8"?>
<!-- Generator: Adobe Illustrator 21.0.0, SVG Export Plug-In . SVG Version: 6.00 Build 0)  -->
<svg version="1.1" id="Layer_1" xmlns="http://www.w3.org/2000/svg" xmlns:xlink="http://www.w3.org/1999/xlink" x="0px" y="0px"
	 viewBox="0 0 32 32" style="enable-background:new 0 0 32 32;" xml:space="preserve">
<title>file_type_jsconfig</title>
<path style="fill:#004999;" d="M28.2,21.5l-0.6,0c-0.9,0.1-1.8-0.1-2.5-0.6c-2-1.2-4.5-1.2-6.6,0c-1.4,0.8-3.1,0.8-4.5,0
	c-1-0.6-2.1-0.9-3.3-0.9c-1.2,0-2.3,0.3-3.3,0.9c-0.6,0.4-1.3,0.6-2.1,0.6H4.6c0,0.7,0,1.5,0,2.1h0.7c1.1,0,2.2-0.3,3.2-0.9
	c0.7-0.4,1.5-0.6,2.2-0.6c0.8,0,1.6,0.2,2.2,0.6c2,1.2,4.5,1.2,6.6,0c1.4-0.8,3.1-0.8,4.5,0c1.1,0.6,2.4,0.9,3.7,0.8l0.5,0
	C28.2,23,28.2,22.3,28.2,21.5z"/>
<path style="fill:#004999;" d="M28.2,15.8l-0.6,0c-0.9,0.1-1.8-0.1-2.5-0.6c-2-1.2-4.5-1.2-6.6,0c-1.4,0.8-3.1,0.8-4.5,0
	c-1-0.6-2.1-0.9-3.3-0.9c-1.2,0-2.3,0.3-3.3,0.9c-0.6,0.4-1.3,0.6-2.1,0.6H4.7c0,0.7,0,1.4,0,2.1h0.7c1.1,0,2.2-0.3,3.2-0.9
	c0.7-0.4,1.5-0.6,2.2-0.6c0.8,0,1.6,0.2,2.2,0.6c2,1.2,4.5,1.2,6.6,0c1.4-0.8,3.1-0.8,4.5,0c1.1,0.6,2.4,0.9,3.7,0.8l0.5,0
	C28.2,17.2,28.2,16.5,28.2,15.8z"/>
<path style="fill:#004999;" d="M27.6,10.4c-0.9,0.1-1.8-0.1-2.5-0.6c-2-1.2-4.5-1.2-6.6,0c-1.4,0.8-3.1,0.8-4.5,0
	c-1-0.6-2.1-0.9-3.3-0.9c-1.2,0-2.3,0.3-3.3,0.9c-0.6,0.4-1.3,0.6-2.1,0.6H4.7c0,0.7,0,1.4,0,2.1h0.7c1.1,0,2.2-0.3,3.2-0.9
	C9.2,11.2,10,11,10.8,11c0.8,0,1.6,0.2,2.2,0.6c2,1.2,4.5,1.2,6.6,0c1.4-0.8,3.1-0.8,4.5,0c1.1,0.6,2.4,0.9,3.7,0.8l0.5,0
	c0-0.7,0-1.4,0-2.1L27.6,10.4z"/>
<path style="fill:#99B8C4;" d="M26.7,24.9l0.4-0.4c1.8,0.1,1.8,0,1.9-0.2l0.5-1.2l0-0.1l0-0.1c0-0.1-0.1-0.2-1.2-1.3V21
	c1.3-1.3,1.3-1.3,1.2-1.5L29,18.3c-0.1-0.2-0.1-0.3-1.9-0.2l-0.4-0.4c0-0.6,0-1.2-0.1-1.8l-0.1-0.1l-1.3-0.6
	c-0.2-0.1-0.3-0.1-1.5,1.2l-0.5,0c-1.3-1.3-1.3-1.3-1.5-1.2l-1.2,0.5c-0.2,0.1-0.3,0.1-0.2,1.9L20,18c-1.8-0.1-1.8,0-1.9,0.2
	l-0.5,1.2l0,0.1l0,0.1c0,0.1,0.1,0.2,1.2,1.3v0.6c-1.3,1.3-1.3,1.3-1.2,1.5l0.5,1.2c0.1,0.2,0.1,0.3,1.9,0.2l0.4,0.4
	c0,0.6,0,1.2,0.1,1.8l0.1,0.1l1.3,0.6c0.2,0.1,0.3,0.1,1.5-1.2l0.5,0c1.3,1.3,1.3,1.3,1.5,1.2l1.2-0.5
	C26.7,26.7,26.8,26.7,26.7,24.9z M21.6,22c-0.4-1.1,0.1-2.4,1.2-2.8c1.1-0.4,2.4,0.1,2.8,1.2c0.4,1.1-0.1,2.3-1.2,2.8
	C23.3,23.7,22,23.2,21.6,22z"/>
</svg>
