<?xml version="1.0" encoding="utf-8"?>
<!-- Generator: Adobe Illustrator 21.0.0, SVG Export Plug-In . SVG Version: 6.00 Build 0)  -->
<svg version="1.1" id="Layer_1" xmlns="http://www.w3.org/2000/svg" xmlns:xlink="http://www.w3.org/1999/xlink" x="0px" y="0px"
	 viewBox="0 0 32 32" style="enable-background:new 0 0 32 32;" xml:space="preserve">
<title>file_type_liquid</title>
<path style="fill:#0A5599;" d="M30,22.4l-0.7,0c-1,0.1-2.1-0.2-3-0.7c-2.4-1.4-5.4-1.4-7.8,0c-1.6,1-3.7,1-5.3,0
	c-1.2-0.7-2.5-1.1-3.9-1.1c-1.4,0-2.8,0.3-3.9,1.1c-0.7,0.5-1.6,0.7-2.5,0.7H2c0,0.9,0,1.7,0,2.5h0.9c1.3,0,2.6-0.4,3.7-1.1
	c0.8-0.5,1.7-0.7,2.7-0.7c0.9,0,1.8,0.2,2.6,0.7c2.4,1.4,5.4,1.4,7.8,0c1.6-1,3.7-1,5.3,0c1.3,0.8,2.9,1.1,4.4,1l0.6,0
	C30,24.1,30,23.2,30,22.4z"/>
<path style="fill:#0A5599;" d="M30,15.6l-0.7,0c-1,0.1-2.1-0.2-3-0.7c-2.4-1.4-5.4-1.4-7.8,0c-1.6,1-3.7,1-5.3,0
	c-1.2-0.7-2.5-1.1-3.9-1.1c-1.4,0-2.8,0.3-3.9,1.1c-0.7,0.5-1.6,0.7-2.5,0.7H2c0,0.8,0,1.7,0,2.5h0.8c1.3,0,2.6-0.4,3.8-1.1
	c0.8-0.5,1.7-0.7,2.7-0.7c0.9,0,1.8,0.2,2.6,0.7c2.4,1.4,5.4,1.4,7.8,0c1.6-1,3.7-1,5.3,0c1.3,0.8,2.9,1.1,4.4,1l0.6,0
	C30,17.3,30,16.4,30,15.6z"/>
<path style="fill:#0A5599;" d="M29.2,9.1c-1,0.1-2.1-0.2-3-0.7c-2.4-1.4-5.4-1.4-7.8,0c-1.6,1-3.7,1-5.3,0C12,7.8,10.6,7.4,9.3,7.4
	c-1.4,0-2.8,0.3-3.9,1.1C4.6,8.9,3.7,9.2,2.9,9.2H2c0,0.8,0,1.7,0,2.5h0.8c1.3,0,2.6-0.4,3.8-1.1c0.8-0.5,1.7-0.7,2.7-0.7
	c0.9,0,1.8,0.2,2.6,0.7c2.4,1.4,5.4,1.4,7.8,0c1.6-1,3.7-1,5.3,0c1.3,0.8,2.9,1.1,4.4,1l0.6,0c0-0.9,0-1.7,0-2.5L29.2,9.1z"/>
<path style="fill:#F5DE19;" d="M22.6,21.2c0.5,1.1,1.6,1.8,2.8,1.7c1.2,0,1.9-0.6,1.9-1.4c0-1-0.8-1.3-2.1-1.9l-0.7-0.3
	c-2.1-0.9-3.4-2-3.4-4.3c0-2.1,1.6-3.8,4.2-3.8c1.7-0.1,3.3,0.8,4.1,2.3l-2.2,1.4c-0.3-0.8-1-1.2-1.8-1.2c-0.7-0.1-1.3,0.4-1.4,1.1
	c0,0,0,0.1,0,0.1c0,0.9,0.5,1.2,1.8,1.7l0.7,0.3c2.4,1,3.8,2.1,3.8,4.5c0,2.6-2,4-4.7,4c-2.2,0.1-4.2-1-5.2-2.9L22.6,21.2z
	 M12.5,21.4c0.5,0.8,0.9,1.5,1.8,1.5c0.9,0,1.5-0.4,1.5-1.8v-9.7h2.9v9.8c0,3-1.7,4.3-4.3,4.3c-1.8,0.1-3.5-0.9-4.3-2.6L12.5,21.4z"
	/>
</svg>
